#!OML:ASF E:\emotionWalksFemale\Project 1\Capture day 1\Session 1\Female1.ASF
:FULLY-SPECIFIED
:DEGREES
143
root 8.23893 19.8453 18.661 -170.721 -0.753633 -179.25
lowerback 2.39808 0.664048 0.309679
upperback -6.35411 0.55626 -0.345793
thorax -7.98491 0.0997192 -0.568083
lowerneck -7.65025 -3.06647 -5.37517
upperneck 4.94148 -3.8903 4.95436
head 3.20818 -1.86431 2.39551
rclavicle 7.96381e-015 -3.97569e-016
rhumerus -37.7034 24.1369 -88.486
rradius 75.6454
rwrist 5.11883
rhand -4.21643 -56.3947
rfingers 7.12502
rthumb 21.5461 -445.216
lclavicle 7.96381e-015 -3.97569e-016
lhumerus -40.679 -6.98086 80.7383
lradius 33.9601
lwrist -27.7566
lhand 12.9004 -34.9558
lfingers 7.12502
lthumb 37.8718 -9.12184
rfemur -2.32533 11.702 23.3057
rtibia 11.9798
rfoot 13.1869 -42.1854
rtoes 46.0559
lfemur -8.04001 -17.3528 -20.4519
ltibia 18.5785
lfoot 0.364424 35.7255
ltoes 58.337
144
root 8.23732 19.9792 18.5966 -171.166 -0.719174 -179.44
lowerback 3.19327 0.662038 0.0388954
upperback -6.24658 0.564026 -0.359139
thorax -8.3385 0.131789 -0.439282
lowerneck -7.6091 -3.10482 -5.46473
upperneck 4.9871 -3.9401 5.01235
head 3.2239 -1.88943 2.4297
rclavicle -5.24916e-015 -9.14409e-015
rhumerus -38.2648 22.9197 -89.0951
rradius 74.9428
rwrist 5.71985
rhand -4.73093 -56.4035
rfingers 7.12502
rthumb 21.0519 -445.281
lclavicle -5.24916e-015 -9.14409e-015
lhumerus -40.7612 -5.98288 80.7981
lradius 33.8225
lwrist -27.1998
lhand 9.80515 -35.939
lfingers 7.12502
lthumb 34.9415 -9.36928
rfemur -2.17992 12.556 23.0712
rtibia 11.7264
rfoot 13.6426 -42.0427
rtoes 45.3173
lfemur -7.76087 -18.1323 -20.6611
ltibia 18.0808
lfoot -4.657 36.1547
ltoes 59.9326
145
root 8.23514 20.0963 18.526 -171.715 -0.589796 -179.426
lowerback 4.10002 0.705333 -0.0375038
upperback -6.15487 0.647972 -0.313001
thorax -8.77462 0.190904 -0.36686
lowerneck -7.60089 -3.14159 -5.70856
upperneck 5.1171 -3.98401 5.21044
head 3.28497 -1.90997 2.54159
rclavicle 1.42876e-016 2.18663e-015
rhumerus -38.7812 21.8276 -89.6328
rradius 74.0658
rwrist 6.20846
rhand -4.75868 -56.9014
rfingers 7.12502
rthumb 21.0253 -445.782
lclavicle 1.42876e-016 2.18663e-015
lhumerus -40.8934 -4.96386 80.8334
lradius 33.6592
lwrist -26.7843
lhand 7.22764 -36.843
lfingers 7.12502
lthumb 32.4924 -9.73709
rfemur -1.85315 13.5676 23.0507
rtibia 11.2779
rfoot 14.2853 -41.5431
rtoes 43.6949
lfemur -7.3724 -19.0415 -20.691
ltibia 17.6738
lfoot -9.25367 37.3354
ltoes 61.8368
146
root 8.23293 20.2024 18.4564 -172.239 -0.504688 -179.401
lowerback 4.54483 0.740962 0.00322841
upperback -5.82051 0.73796 -0.361741
thorax -8.67082 0.24882 -0.457004
lowerneck -7.56061 -3.19384 -5.74326
upperneck 5.00287 -4.06456 5.39691
head 3.2506 -1.94538 2.60717
rclavicle 1.47101e-014 -5.36719e-015
rhumerus -39.0891 20.6874 -90.0571
rradius 73.388
rwrist 6.48134
rhand -4.64954 -57.4124
rfingers 7.12502
rthumb 21.1301 -446.281
lclavicle 1.47101e-014 -5.36719e-015
lhumerus -40.5912 -4.19825 80.782
lradius 33.5243
lwrist -26.2178
lhand 5.63191 -37.2205
lfingers 7.12502
lthumb 30.9725 -9.81382
rfemur -1.47334 14.6305 23.056
rtibia 10.6443
rfoot 14.1402 -41.3281
rtoes 42.7458
lfemur -7.11745 -19.7881 -20.6799
ltibia 17.4067
lfoot -13.9371 36.8073
ltoes 63.6805
147
root 8.22822 20.2943 18.3895 -172.721 -0.563421 -179.399
lowerback 5.88726 0.727553 -0.208619
upperback -6.05662 0.71078 -0.218226
thorax -9.73257 0.253877 -0.199607
lowerneck -7.27193 -3.2147 -5.86441
upperneck 5.20641 -4.09986 5.36347
head 3.27051 -1.97078 2.61936
rclavicle 9.13167e-016 2.38542e-015
rhumerus -40.4368 19.892 -90.5948
rradius 72.8187
rwrist 6.69229
rhand -4.52893 -57.3453
rfingers 7.12502
rthumb 21.246 -446.201
lclavicle 9.13167e-016 2.38542e-015
lhumerus -41.2086 -3.20305 80.9452
lradius 33.4682
lwrist -26.0004
lhand 4.10652 -37.3745
lfingers 7.12502
lthumb 29.5174 -9.70087
rfemur -1.09994 15.0807 23.0654
rtibia 9.94777
rfoot 13.246 -41.078
rtoes 43.0624
lfemur -6.9966 -20.4694 -20.653
ltibia 17.2315
lfoot -18.0373 35.9451
ltoes 64.3576
148
root 8.21965 20.3699 18.326 -173.202 -0.772958 -179.401
lowerback 6.26605 0.61555 -0.177315
upperback -5.65382 0.609832 -0.178519
thorax -9.51406 0.222965 -0.164921
lowerneck -7.09762 -3.25659 -5.98871
upperneck 4.62794 -4.14193 5.50916
head 3.05016 -1.99034 2.6882
rclavicle -2.19906e-015 2.48481e-015
rhumerus -40.4772 19.3236 -90.8744
rradius 71.9508
rwrist 6.72455
rhand -4.58458 -57.3504
rfingers 7.12502
rthumb 21.1925 -446.212
lclavicle -2.19906e-015 2.48481e-015
lhumerus -40.7882 -2.05259 80.8952
lradius 33.3332
lwrist -26.0615
lhand 2.54076 -37.5233
lfingers 7.12502
lthumb 28.0216 -9.59547
rfemur -0.745624 15.3817 23.092
rtibia 9.25558
rfoot 11.9378 -41.072
rtoes 43.6478
lfemur -6.95929 -21.3211 -20.6049
ltibia 17.144
lfoot -21.7697 34.8309
ltoes 64.7896
149
root 8.20931 20.4305 18.2603 -173.62 -0.924219 -179.412
lowerback 6.76706 0.5689 -0.134441
upperback -5.39989 0.577888 -0.202806
thorax -9.53188 0.215767 -0.215298
lowerneck -6.86858 -3.27984 -6.0742
upperneck 4.15113 -4.18204 5.78919
head 2.8594 -2.00709 2.79741
rclavicle 3.73032e-015 -4.37326e-015
rhumerus -40.6372 18.7647 -91.2081
rradius 71.1618
rwrist 6.47469
rhand -5.24577 -57.7931
rfingers 7.12502
rthumb 20.5573 -446.725
lclavicle 3.73032e-015 -4.37326e-015
lhumerus -40.6173 -1.02392 80.7506
lradius 33.2565
lwrist -26.3603
lhand 1.46868 -37.5877
lfingers 7.12502
lthumb 26.9963 -9.49675
rfemur -0.522395 15.7434 23.075
rtibia 8.59263
rfoot 11.9083 -41.2868
rtoes 43.6147
lfemur -7.02486 -22.1462 -20.5489
ltibia 17.1805
lfoot -24.294 34.4255
ltoes 65.5489
150
root 8.20011 20.4787 18.1899 -173.926 -0.923039 -179.261
lowerback 7.21417 0.596825 -0.0401619
upperback -5.28587 0.643951 -0.172999
thorax -9.67138 0.248969 -0.251219
lowerneck -6.70303 -3.3133 -6.0941
upperneck 3.96411 -4.24573 6.02189
head 2.77799 -2.03618 2.8782
rclavicle 8.73721e-015 1.19271e-015
rhumerus -41.0063 18.3202 -91.5963
rradius 70.4006
rwrist 5.75797
rhand -6.0093 -58.0165
rfingers 7.12502
rthumb 19.8234 -447.026
lclavicle 8.73721e-015 1.19271e-015
lhumerus -40.6666 -0.190212 80.6297
lradius 33.2138
lwrist -26.7818
lhand 0.443747 -37.8085
lfingers 7.12502
lthumb 26.0153 -9.56948
rfemur -0.489268 16.2805 23.1797
rtibia 8.03719
rfoot 11.7796 -41.6393
rtoes 43.7875
lfemur -7.2303 -22.7075 -20.281
ltibia 17.3021
lfoot -26.3547 33.2315
ltoes 65.9605
151
root 8.18997 20.5153 18.1201 -174.056 -0.905137 -179.123
lowerback 7.5037 0.630954 0.0591178
upperback -5.22703 0.712891 -0.142679
thorax -9.77774 0.280231 -0.288725
lowerneck -6.58737 -3.36249 -5.87547
upperneck 3.83629 -4.3274 5.92411
head 2.70726 -2.07816 2.79917
rclavicle -4.09993e-016 9.93923e-016
rhumerus -41.4401 17.8881 -91.9374
rradius 69.6346
rwrist 5.04805
rhand -7.36059 -57.1771
rfingers 7.12502
rthumb 18.524 -446.315
lclavicle -4.09993e-016 9.93923e-016
lhumerus -40.6757 0.246885 80.711
lradius 33.1568
lwrist -26.9917
lhand -0.773871 -37.9159
lfingers 7.12502
lthumb 24.8489 -9.51073
rfemur -0.719752 16.8421 23.2089
rtibia 7.6354
rfoot 10.5221 -42.0505
rtoes 44.2996
lfemur -7.67003 -23.0478 -19.9692
ltibia 17.462
lfoot -25.9435 33.433
ltoes 66.053
152
root 8.17764 20.544 18.0501 -174.02 -0.865573 -179.112
lowerback 7.46819 0.630288 0.0911406
upperback -5.11484 0.722713 -0.148288
thorax -9.63236 0.286298 -0.313614
lowerneck -6.42141 -3.35635 -5.59946
upperneck 3.49399 -4.32731 5.72938
head 2.54412 -2.08202 2.68043
rclavicle -7.7495e-015 -2.78299e-015
rhumerus -41.7598 17.6723 -92.2926
rradius 68.9454
rwrist 4.44479
rhand -11.6957 -54.6223
rfingers 7.12502
rthumb 14.3502 -444.106
lclavicle -7.7495e-015 -2.78299e-015
lhumerus -40.5823 0.575674 80.8201
lradius 33.1228
lwrist -27.0252
lhand -1.60342 -37.7572
lfingers 7.12502
lthumb 24.0537 -9.24465
rfemur -1.15574 17.4208 23.0403
rtibia 7.28821
rfoot 10.168 -42.3412
rtoes 43.8896
lfemur -8.30357 -23.1892 -19.7454
ltibia 17.673
lfoot -24.8646 34.0844
ltoes 65.6995
153
root 8.16541 20.5641 17.9818 -173.903 -0.905647 -179.043
lowerback 7.20756 0.549086 0.219083
upperback -4.91691 0.639571 -0.126719
thorax -9.25945 0.24413 -0.346445
lowerneck -6.33127 -3.30565 -5.66085
upperneck 3.10315 -4.25102 5.81646
head 2.39654 -2.04522 2.72457
rclavicle 1.06257e-014 -3.37934e-015
rhumerus -41.8465 17.8677 -92.6745
rradius 68.2043
rwrist 3.57456
rhand -5.94957 -60.5206
rfingers 7.12502
rthumb 19.8808 -449.524
lclavicle 1.06257e-014 -3.37934e-015
lhumerus -40.4243 1.02221 80.8605
lradius 33.1857
lwrist -27.175
lhand -2.03716 -37.6738
lfingers 7.12502
lthumb 23.6377 -9.10693
rfemur -1.71397 17.918 22.9183
rtibia 6.98939
rfoot 10.6504 -42.505
rtoes 42.8294
lfemur -9.0801 -23.2199 -19.3768
ltibia 17.9052
lfoot -23.0002 35.1686
ltoes 64.9733
